<!-- Generator: Adobe Illustrator 21.1.0, SVG Export Plug-In  -->
<svg version="1.1"
	 xmlns="http://www.w3.org/2000/svg" xmlns:xlink="http://www.w3.org/1999/xlink" xmlns:a="http://ns.adobe.com/AdobeSVGViewerExtensions/3.0/"
	 x="0px" y="0px" width="114.834px" height="196.868px" viewBox="0 0 114.834 196.868"
	 style="enable-background:new 0 0 114.834 196.868;" xml:space="preserve">
<style type="text/css">
	.st0{fill:none;stroke:#000000;stroke-width:10.5;stroke-miterlimit:10;}
	.st1{fill:none;stroke:#55C4C4;stroke-width:10.5;stroke-miterlimit:10;}
	.st2{fill:#55C4C4;}
	.st3{fill:none;stroke:#000000;stroke-width:2;stroke-miterlimit:10;}
	.st4{fill:none;}
</style>
<defs>
</defs>
<g>
	<path class="st0" d="M59.89,100.421c0,15.088-12.232,27.32-27.32,27.32S5.25,115.51,5.25,100.421"/>
	<path class="st1" d="M5.25,97.99c0-15.088,12.232-27.32,27.32-27.32s27.32,12.232,27.32,27.32"/>
	<g>
		<path d="M55.359,28.567L55.359,28.567c2.578-5.737,9.703-3.495,9.703,3.054v68.662c0,3.498-2.315,6.334-5.172,6.334h0
			c-2.856,0-5.172-2.836-5.172-6.334V31.62C54.718,30.553,54.939,29.502,55.359,28.567z"/>
	</g>
	<path class="st2" d="M64.667,114.082c0,0-2.897,8.457-9.553,12.617v37.351h9.553V114.082z"/>
	<g>
		<path class="st2" d="M55.72,128.665L55.72,128.665c2.373-5.014,8.93-3.054,8.93,2.669v60c0,3.057-2.131,5.535-4.76,5.535h0
			c-2.629,0-4.76-2.478-4.76-5.535v-60C55.13,130.4,55.333,129.482,55.72,128.665z"/>
	</g>
	<circle class="st3" cx="59.89" cy="7.068" r="6.068"/>
	<path class="st2" d="M86.578,38.817L86.578,38.817c0,0.442-0.359,0.801-0.801,0.801h-9.118c-1.747,0-3.024-0.153-3.832-0.458
		c-1.144-0.419-2.025-1.148-2.643-2.185c-0.618-1.037-0.927-2.284-0.927-3.741c0-1.068,0.152-2.027,0.453-2.877
		c0.302-0.85,0.708-1.543,1.216-2.076c0.509-0.534,1.253-1.026,2.232-1.476v0c0,0.952-0.38,1.864-1.057,2.533
		c-0.314,0.31-0.572,0.656-0.774,1.038c-0.397,0.748-0.595,1.676-0.595,2.784c0,1.092,0.203,2.013,0.61,2.767
		c0.406,0.751,0.918,1.288,1.533,1.609c0.616,0.32,1.61,0.48,2.982,0.48h0.641c-0.763-0.603-1.348-1.34-1.756-2.21
		c-0.408-0.871-0.612-1.794-0.612-2.771c0-1.145,0.284-2.222,0.852-3.23c0.568-1.008,1.333-1.786,2.294-2.336
		c0.961-0.55,2.017-0.825,3.169-0.825s2.225,0.286,3.22,0.859c0.995,0.572,1.783,1.365,2.362,2.376
		c0.58,1.012,0.869,2.078,0.869,3.201c0,0.931-0.193,1.799-0.578,2.606c-0.385,0.805-1.02,1.582-1.905,2.33h1.361
		C86.219,38.016,86.578,38.375,86.578,38.817z M85.354,33.292c0-0.908-0.219-1.75-0.658-2.528c-0.439-0.778-1.045-1.388-1.819-1.83
		c-0.774-0.442-1.611-0.664-2.511-0.664c-1.365,0-2.494,0.458-3.386,1.373c-0.892,0.915-1.339,2.101-1.339,3.558
		c0,1.472,0.442,2.656,1.327,3.552c0.885,0.896,2.048,1.344,3.489,1.344c0.938,0,1.775-0.206,2.511-0.618
		c0.736-0.412,1.318-0.995,1.745-1.75C85.14,34.973,85.354,34.161,85.354,33.292z"/>
	<path class="st2" d="M86.578,43.262L86.578,43.262c0,0.452-0.366,0.818-0.818,0.818h-1.001c0.717,0.488,1.253,1.003,1.607,1.544
		c0.355,0.542,0.532,1.106,0.532,1.693c0,0.442-0.141,0.915-0.423,1.419l-1.35-0.835c0.145-0.336,0.217-0.618,0.217-0.847
		c0-0.534-0.219-1.049-0.658-1.544c-0.439-0.496-1.119-0.873-2.042-1.133c-0.709-0.198-2.143-0.297-4.302-0.297h-3.392
		c-0.452,0-0.818-0.366-0.818-0.818l0,0c0-0.452,0.366-0.818,0.818-0.818H85.76C86.212,42.444,86.578,42.81,86.578,43.262z"/>
	<path class="st2" d="M86.148,62.498H74.561c-0.237,0-0.43-0.192-0.43-0.43v-0.72c0-0.237,0.192-0.43,0.43-0.43h1.71
		c-0.816-0.671-1.43-1.424-1.842-2.259c-0.412-0.835-0.618-1.748-0.618-2.74c0-1.762,0.639-3.266,1.916-4.513
		c1.217-1.188,2.685-1.81,4.403-1.866c1.852-0.061,3.689,0.672,4.977,2.004c1.194,1.234,1.791,2.708,1.791,4.421
		c0,1.022-0.217,1.947-0.652,2.774c-0.435,0.828-1.087,1.554-1.956,2.179h1.859c0.237,0,0.43,0.192,0.43,0.43v0.72
		C86.578,62.306,86.386,62.498,86.148,62.498z M85.354,56.098c0-0.891-0.219-1.714-0.657-2.468c-0.439-0.754-1.053-1.355-1.846-1.8
		c-0.792-0.445-1.63-0.668-2.514-0.668c-0.876,0-1.714,0.225-2.514,0.674c-0.8,0.449-1.422,1.053-1.869,1.811
		c-0.445,0.758-0.668,1.571-0.668,2.44c0,0.876,0.221,1.706,0.663,2.491c0.442,0.785,1.04,1.388,1.794,1.811
		c0.754,0.422,1.604,0.634,2.548,0.634c1.44,0,2.644-0.474,3.611-1.422C84.87,58.652,85.354,57.484,85.354,56.098z"/>
	<path class="st2" d="M86.578,66.558v0.735c0,0.239-0.194,0.433-0.433,0.433H84.29c0.869,0.632,1.522,1.359,1.956,2.183
		c0.435,0.823,0.652,1.741,0.652,2.754c0,1.711-0.597,3.182-1.79,4.415c-1.288,1.331-3.124,2.063-4.975,2.003
		c-1.72-0.056-3.189-0.677-4.406-1.864c-1.277-1.246-1.916-2.749-1.916-4.508c0-0.991,0.206-1.901,0.618-2.731
		c0.268-0.541,0.621-1.047,1.06-1.519c0.26-0.28,0.076-0.733-0.307-0.733h-5.17c-0.239,0-0.433-0.194-0.433-0.433v-0.735
		c0-0.239,0.194-0.433,0.433-0.433h16.134C86.384,66.125,86.578,66.319,86.578,66.558z M85.354,72.531
		c0-1.385-0.484-2.551-1.451-3.499c-0.968-0.947-2.172-1.42-3.611-1.42c-0.945,0-1.794,0.211-2.548,0.633
		c-0.754,0.422-1.352,1.028-1.794,1.815c-0.441,0.787-0.663,1.619-0.663,2.494c0,0.86,0.223,1.668,0.668,2.425
		c0.446,0.757,1.069,1.36,1.869,1.809c0.8,0.448,1.638,0.673,2.514,0.673c0.884,0,1.722-0.223,2.514-0.667
		c0.792-0.445,1.407-1.045,1.846-1.798C85.135,74.244,85.354,73.422,85.354,72.531z"/>
	<path class="st2" d="M91.383,82.885L91.383,82.885c0,0.442-0.359,0.801-0.801,0.801h-4.256c-0.659,0-1.053,0.766-0.639,1.28
		c0.223,0.277,0.416,0.564,0.577,0.86c0.423,0.778,0.635,1.621,0.635,2.528c0,0.93-0.236,1.756-0.709,2.477
		c-0.473,0.721-1.108,1.253-1.905,1.596c-0.797,0.343-2.046,0.515-3.747,0.515h-5.606c-0.442,0-0.801-0.359-0.801-0.801l0,0
		c0-0.442,0.359-0.801,0.801-0.801h5.137c1.434,0,2.391-0.057,2.871-0.172c0.824-0.198,1.443-0.559,1.859-1.081
		c0.416-0.522,0.623-1.207,0.623-2.054c0-0.969-0.32-1.836-0.961-2.603c-0.641-0.766-1.434-1.272-2.38-1.516
		c-0.61-0.153-1.739-0.229-3.386-0.229h-3.764c-0.442,0-0.801-0.359-0.801-0.801v0c0-0.442,0.359-0.801,0.801-0.801h15.65
		C91.024,82.084,91.383,82.443,91.383,82.885z"/>
	<path class="st2" d="M91.703,96.928c0,0.364-0.13,0.676-0.389,0.934c-0.259,0.257-0.572,0.387-0.938,0.387
		c-0.358,0-0.667-0.13-0.927-0.387c-0.259-0.258-0.389-0.57-0.389-0.934c0-0.357,0.13-0.664,0.389-0.923
		c0.259-0.258,0.568-0.387,0.927-0.387c0.366,0,0.679,0.129,0.938,0.387C91.574,96.263,91.703,96.571,91.703,96.928z M86.578,96.933
		L86.578,96.933c0,0.442-0.359,0.801-0.801,0.801H74.932c-0.442,0-0.801-0.359-0.801-0.801v0c0-0.442,0.359-0.801,0.801-0.801
		h10.845C86.219,96.133,86.578,96.491,86.578,96.933z"/>
	<path class="st2" d="M83.993,113.144l-0.047-0.075c-0.413-0.665-0.291-1.494,0.213-2.093c0.819-0.973,1.229-2.17,1.229-3.593
		c0-1.523-0.493-2.787-1.477-3.791c-0.875-0.893-2.087-1.437-3.336-1.484c-0.983-0.037-1.904,0.193-2.763,0.687
		c-0.8,0.46-1.42,1.093-1.863,1.897c-0.441,0.804-0.663,1.705-0.663,2.702c0,1.829,0.728,3.321,2.185,4.48l0,0
		c-0.478,0.727-1.536,0.813-2.096,0.146c-0.319-0.38-0.594-0.804-0.824-1.273c-0.494-1.003-0.741-2.145-0.741-3.426
		c0-2.181,0.768-3.95,2.305-5.306c1.007-0.889,2.302-1.429,3.642-1.518c1.394-0.093,2.678,0.205,3.851,0.893
		c1.033,0.606,1.84,1.44,2.42,2.5c0.58,1.06,0.869,2.246,0.869,3.558c0,0.824-0.126,1.619-0.378,2.385
		c-0.252,0.766-0.58,1.417-0.984,1.951C85.133,112.317,84.618,112.77,83.993,113.144z"/>
	<path d="M91.025,132.849H73.728c-0.25,0-0.453-0.203-0.453-0.453v-0.759c0-0.25,0.203-0.453,0.453-0.453h1.804
		c-0.861-0.708-1.509-1.503-1.943-2.384c-0.435-0.881-0.652-1.845-0.652-2.891c0-1.859,0.674-3.446,2.022-4.762
		c1.302-1.271,2.876-1.928,4.722-1.971c1.905-0.045,3.784,0.706,5.122,2.063c1.295,1.313,1.943,2.886,1.943,4.719
		c0,1.078-0.229,2.054-0.688,2.927c-0.359,0.683-0.858,1.301-1.497,1.853c-0.178,0.153-0.061,0.446,0.173,0.446l6.291,0
		c0.25,0,0.453,0.203,0.453,0.453v0.759C91.478,132.646,91.275,132.849,91.025,132.849z M85.117,126.096
		c0-0.941-0.231-1.809-0.693-2.604c-0.463-0.796-1.112-1.429-1.947-1.899c-0.836-0.47-1.72-0.705-2.653-0.705
		c-0.924,0-1.809,0.237-2.653,0.711c-0.844,0.474-1.501,1.112-1.972,1.911c-0.47,0.8-0.705,1.658-0.705,2.574
		c0,0.924,0.233,1.801,0.699,2.628c0.467,0.828,1.097,1.465,1.893,1.911c0.796,0.446,1.692,0.669,2.689,0.669
		c1.519,0,2.789-0.501,3.81-1.501C84.606,128.79,85.117,127.558,85.117,126.096z"/>
	<path d="M77.522,147.944L77.522,147.944c-0.356,0.677-1.238,0.923-1.857,0.475c-0.38-0.275-0.714-0.569-1.001-0.881
		c-0.563-0.612-0.992-1.301-1.286-2.065c-0.294-0.765-0.441-1.632-0.441-2.598c0-2.143,0.702-3.817,2.106-5.025
		c1.63-1.403,3.506-1.991,5.628-1.766c1.038,0.11,2.05,0.465,2.931,1.025c2.096,1.334,3.144,3.224,3.144,5.669
		c0,2.239-0.849,4.028-2.547,5.364c-1.137,0.902-2.543,1.383-4.216,1.443c-0.147,0.005-0.275-0.117-0.275-0.264V138.05
		c0-0.149-0.13-0.273-0.279-0.264c-1.399,0.083-2.557,0.567-3.472,1.451c-0.976,0.943-1.464,2.106-1.464,3.492
		c0,0.669,0.117,1.319,0.349,1.951c0.232,0.633,0.541,1.171,0.925,1.613c0.353,0.407,0.904,0.843,1.654,1.31
		C77.538,147.676,77.584,147.825,77.522,147.944z M81.17,147.388c0,0.172,0.174,0.301,0.339,0.253
		c0.745-0.22,1.352-0.517,1.821-0.893c0.667-0.534,1.174-1.28,1.52-2.236c0.13-0.358,0.215-0.737,0.25-1.115
		c0.143-1.547-0.262-2.852-1.215-3.918c-0.545-0.611-1.336-1.088-2.372-1.429c-0.166-0.055-0.344,0.074-0.344,0.249V147.388z"/>
	<path d="M84.381,158.773L84.381,158.773c-0.281-0.272-0.325-0.718-0.082-1.024c0.577-0.727,0.866-1.441,0.866-2.141
		c0-0.548-0.181-1.019-0.543-1.409c-0.362-0.392-0.785-0.587-1.267-0.587c-0.426,0-0.833,0.161-1.219,0.484
		c-0.394,0.323-0.857,1-1.388,2.032c-0.652,1.258-1.28,2.113-1.883,2.565c-0.612,0.444-1.3,0.665-2.064,0.665
		c-1.078,0-1.992-0.379-2.74-1.137s-1.123-1.704-1.123-2.841c0-0.757,0.165-1.481,0.495-2.17c0.213-0.444,0.477-0.839,0.793-1.184
		c0.289-0.316,0.781-0.342,1.103-0.059l0.057,0.05c0.316,0.278,0.358,0.764,0.08,1.081c-0.615,0.703-0.923,1.439-0.923,2.209
		c0,0.678,0.217,1.254,0.652,1.73c0.435,0.476,0.946,0.714,1.533,0.714c0.483,0,0.913-0.157,1.292-0.472
		c0.37-0.315,0.837-1.024,1.4-2.128c0.612-1.186,1.215-1.993,1.811-2.42c0.595-0.428,1.275-0.641,2.04-0.641
		c0.998,0,1.827,0.34,2.487,1.022c0.66,0.681,0.99,1.541,0.99,2.581c0,0.992-0.398,1.989-1.194,2.991
		C85.262,159.051,84.717,159.098,84.381,158.773z"/>
	<path d="M91.703,163.272c0,0.384-0.137,0.713-0.41,0.986c-0.274,0.272-0.604,0.408-0.99,0.408c-0.378,0-0.704-0.137-0.978-0.408
		c-0.274-0.273-0.41-0.602-0.41-0.986c0-0.376,0.137-0.701,0.41-0.974s0.6-0.408,0.978-0.408c0.386,0,0.716,0.136,0.99,0.408
		S91.703,162.896,91.703,163.272z M86.295,163.278L86.295,163.278c0,0.467-0.378,0.845-0.845,0.845H74.007
		c-0.467,0-0.845-0.378-0.845-0.845l0,0c0-0.467,0.378-0.845,0.845-0.845h11.443C85.917,162.433,86.295,162.811,86.295,163.278z"/>
	<path d="M86.408,179.455L86.408,179.455c0,0.467-0.378,0.845-0.845,0.845h-9.62c-1.843,0-3.191-0.161-4.044-0.483
		c-1.207-0.443-2.137-1.211-2.788-2.306s-0.978-2.41-0.978-3.947c0-1.127,0.16-2.139,0.478-3.036
		c0.319-0.897,0.747-1.628,1.284-2.191c0.537-0.563,1.322-1.082,2.355-1.557v0.081c0,0.952-0.368,1.877-1.057,2.535
		c-0.357,0.342-0.649,0.726-0.875,1.152c-0.418,0.79-0.628,1.768-0.628,2.937c0,1.152,0.214,2.124,0.644,2.918
		c0.429,0.794,0.969,1.36,1.617,1.698c0.65,0.339,1.699,0.508,3.146,0.508h0.676c-0.805-0.637-1.422-1.414-1.853-2.332
		c-0.431-0.918-0.646-1.893-0.646-2.924c0-1.209,0.3-2.345,0.899-3.408s1.406-1.885,2.42-2.464c1.014-0.58,2.128-0.87,3.344-0.87
		c1.215,0,2.348,0.302,3.398,0.906c1.05,0.605,1.881,1.439,2.493,2.507s0.917,2.194,0.917,3.378c0,0.983-0.203,1.899-0.61,2.749
		c-0.406,0.849-1.076,1.669-2.01,2.458h1.436C86.03,178.61,86.408,178.988,86.408,179.455z M85.117,173.624
		c0-0.958-0.231-1.847-0.694-2.668s-1.102-1.465-1.919-1.931s-1.7-0.7-2.65-0.7c-1.44,0-2.631,0.483-3.573,1.449
		c-0.942,0.966-1.412,2.217-1.412,3.754c0,1.553,0.467,2.802,1.4,3.748c0.933,0.946,2.161,1.418,3.682,1.418
		c0.99,0,1.873-0.217,2.65-0.652c0.777-0.435,1.39-1.05,1.841-1.847C84.891,175.399,85.117,174.542,85.117,173.624z"/>
	<path d="M86.408,184.766L86.408,184.766c0,0.467-0.378,0.845-0.845,0.845h-1.509c0.901,0.676,1.575,1.424,2.022,2.245
		c0.447,0.821,0.67,1.714,0.67,2.68c0,0.982-0.249,1.853-0.748,2.613c-0.499,0.76-1.171,1.322-2.016,1.684
		c-0.845,0.362-2.161,0.543-3.947,0.543H74.12c-0.467,0-0.845-0.378-0.845-0.845l0,0c0-0.467,0.378-0.845,0.845-0.845h5.42
		c1.513,0,2.523-0.062,3.03-0.188c0.869-0.196,1.523-0.571,1.962-1.127c0.439-0.555,0.658-1.279,0.658-2.173
		c0-1.023-0.338-1.938-1.014-2.747s-1.513-1.342-2.511-1.599c-0.652-0.161-1.843-0.241-3.573-0.241H74.12
		c-0.467,0-0.845-0.378-0.845-0.845l0,0c0-0.467,0.378-0.845,0.845-0.845h11.443C86.03,183.921,86.408,184.299,86.408,184.766z"/>
	<g>
		<rect x="67.697" y="27.222" class="st4" width="44.256" height="72.241"/>
	</g>
</g>
</svg>